#N canvas 179 23 1071 755 10;
#X obj 52 279 blip;
#X obj 82 279 blip;
#X obj 112 279 blip;
#X obj 142 279 blip;
#X obj 172 279 blip;
#X obj 202 279 blip;
#X obj 232 279 blip;
#X obj 262 279 blip;
#X obj 292 279 blip;
#X obj 322 279 blip;
#X obj 352 279 blip;
#X obj 382 279 blip;
#X obj 412 279 blip;
#X obj 442 279 blip;
#X obj 472 279 blip;
#X obj 502 279 blip;
#X obj 532 279 blip;
#X obj 562 279 blip;
#X obj 592 279 blip;
#X obj 622 279 blip;
#X obj 652 279 blip;
#X obj 682 279 blip;
#X obj 712 279 blip;
#X obj 742 279 blip;
#X obj 52 57 inlet;
#X obj 91 365 s~ blip1;
#X obj 101 385 s~ blip2;
#X obj 111 405 s~ blip3;
#X obj 121 425 s~ blip4;
#X obj 201 365 s~ blip5;
#X obj 211 385 s~ blip6;
#X obj 221 405 s~ blip7;
#X obj 231 425 s~ blip8;
#X obj 321 365 s~ blip9;
#X obj 331 385 s~ blip10;
#X obj 341 405 s~ blip11;
#X obj 351 425 s~ blip12;
#X obj 431 365 s~ blip13;
#X obj 441 385 s~ blip14;
#X obj 451 405 s~ blip15;
#X obj 461 425 s~ blip16;
#X obj 541 365 s~ blip17;
#X obj 551 385 s~ blip18;
#X obj 561 405 s~ blip19;
#X obj 571 425 s~ blip20;
#X obj 651 365 s~ blip21;
#X obj 661 385 s~ blip22;
#X obj 671 405 s~ blip23;
#X obj 681 425 s~ blip24;
#X obj 93 141 inlet;
#X obj 63 78 inlet;
#X obj 83 120 inlet;
#X obj 73 99 inlet;
#X obj 52 245 sel 1 2 3 4 5 6 7 8 9 10 11 12 13 14 15 16 17 18 19 20
21 22 23 24, f 90;
#X obj 63 225 sel 1 2 3 4 5 6 7 8 9 10 11 12 13 14 15 16 17 18 19 20
21 22 23 242, f 90;
#X obj 73 205 sel 1 2 3 4 5 6 7 8 9 10 11 12 13 14 15 16 17 18 19 20
21 22 23 24, f 90;
#X obj 83 185 sel 1 2 3 4 5 6 7 8 9 10 11 12 13 14 15 16 17 18 19 20
21 22 23 24, f 90;
#X obj 93 165 sel 1 2 3 4 5 6 7 8 9 10 11 12 13 14 15 16 17 18 19 20
21 22 23 24, f 90;
#X connect 0 0 25 0;
#X connect 1 0 26 0;
#X connect 2 0 27 0;
#X connect 3 0 28 0;
#X connect 4 0 29 0;
#X connect 5 0 30 0;
#X connect 6 0 31 0;
#X connect 7 0 32 0;
#X connect 8 0 33 0;
#X connect 9 0 34 0;
#X connect 10 0 35 0;
#X connect 11 0 36 0;
#X connect 12 0 37 0;
#X connect 13 0 38 0;
#X connect 14 0 39 0;
#X connect 15 0 40 0;
#X connect 16 0 41 0;
#X connect 17 0 42 0;
#X connect 18 0 43 0;
#X connect 19 0 44 0;
#X connect 20 0 45 0;
#X connect 21 0 46 0;
#X connect 22 0 47 0;
#X connect 23 0 48 0;
#X connect 24 0 53 0;
#X connect 49 0 57 0;
#X connect 50 0 54 0;
#X connect 51 0 56 0;
#X connect 52 0 55 0;
#X connect 53 0 0 0;
#X connect 53 1 1 0;
#X connect 53 2 2 0;
#X connect 53 3 3 0;
#X connect 53 4 4 0;
#X connect 53 5 5 0;
#X connect 53 6 6 0;
#X connect 53 7 7 0;
#X connect 53 8 8 0;
#X connect 53 9 9 0;
#X connect 53 10 10 0;
#X connect 53 11 11 0;
#X connect 53 12 12 0;
#X connect 53 13 13 0;
#X connect 53 14 14 0;
#X connect 53 15 15 0;
#X connect 53 16 16 0;
#X connect 53 17 17 0;
#X connect 53 18 18 0;
#X connect 53 19 19 0;
#X connect 53 20 20 0;
#X connect 53 21 21 0;
#X connect 53 22 22 0;
#X connect 53 23 23 0;
#X connect 54 0 0 0;
#X connect 54 1 1 0;
#X connect 54 2 2 0;
#X connect 54 3 3 0;
#X connect 54 4 4 0;
#X connect 54 5 5 0;
#X connect 54 6 6 0;
#X connect 54 7 7 0;
#X connect 54 8 8 0;
#X connect 54 9 9 0;
#X connect 54 10 10 0;
#X connect 54 11 11 0;
#X connect 54 12 12 0;
#X connect 54 13 13 0;
#X connect 54 14 14 0;
#X connect 54 15 15 0;
#X connect 54 16 16 0;
#X connect 54 17 17 0;
#X connect 54 18 18 0;
#X connect 54 19 19 0;
#X connect 54 20 20 0;
#X connect 54 21 21 0;
#X connect 54 22 22 0;
#X connect 54 23 23 0;
#X connect 55 0 0 0;
#X connect 55 1 1 0;
#X connect 55 2 2 0;
#X connect 55 3 3 0;
#X connect 55 4 4 0;
#X connect 55 5 5 0;
#X connect 55 6 6 0;
#X connect 55 7 7 0;
#X connect 55 8 8 0;
#X connect 55 9 9 0;
#X connect 55 10 10 0;
#X connect 55 11 11 0;
#X connect 55 12 12 0;
#X connect 55 13 13 0;
#X connect 55 14 14 0;
#X connect 55 15 15 0;
#X connect 55 16 16 0;
#X connect 55 17 17 0;
#X connect 55 18 18 0;
#X connect 55 19 19 0;
#X connect 55 20 20 0;
#X connect 55 21 21 0;
#X connect 55 22 22 0;
#X connect 55 23 23 0;
#X connect 56 0 0 0;
#X connect 56 1 1 0;
#X connect 56 2 2 0;
#X connect 56 3 3 0;
#X connect 56 4 4 0;
#X connect 56 5 5 0;
#X connect 56 6 6 0;
#X connect 56 7 7 0;
#X connect 56 8 8 0;
#X connect 56 9 9 0;
#X connect 56 10 10 0;
#X connect 56 11 11 0;
#X connect 56 12 12 0;
#X connect 56 13 13 0;
#X connect 56 14 14 0;
#X connect 56 15 15 0;
#X connect 56 16 16 0;
#X connect 56 17 17 0;
#X connect 56 18 18 0;
#X connect 56 19 19 0;
#X connect 56 20 20 0;
#X connect 56 21 21 0;
#X connect 56 22 22 0;
#X connect 56 23 23 0;
#X connect 57 0 0 0;
#X connect 57 1 1 0;
#X connect 57 2 2 0;
#X connect 57 3 3 0;
#X connect 57 4 4 0;
#X connect 57 5 5 0;
#X connect 57 6 6 0;
#X connect 57 7 7 0;
#X connect 57 8 8 0;
#X connect 57 9 9 0;
#X connect 57 10 10 0;
#X connect 57 11 11 0;
#X connect 57 12 12 0;
#X connect 57 13 13 0;
#X connect 57 14 14 0;
#X connect 57 15 15 0;
#X connect 57 16 16 0;
#X connect 57 17 17 0;
#X connect 57 18 18 0;
#X connect 57 19 19 0;
#X connect 57 20 20 0;
#X connect 57 21 21 0;
#X connect 57 22 22 0;
#X connect 57 23 23 0;
