#N canvas 0 23 1279 665 10;
#X obj 889 303 hsl 128 15 0 1 0 1 empty empty empty -2 -8 0 10 -261234
-258113 -1 2540 1;
#X obj 647 242 *~;
#X obj 679 242 *~;
#X obj 708 241 *~;
#X obj 705 320 meter~;
#X obj 727 320 meter~;
#X obj 747 320 meter~;
#X obj 768 320 meter~;
#X obj 788 320 meter~;
#X obj 809 320 meter~;
#X obj 829 320 meter~;
#X obj 850 320 meter~;
#X obj 870 320 meter~;
#X obj 891 320 meter~;
#X obj 911 320 meter~;
#X obj 931 320 meter~;
#X obj 952 320 meter~;
#X obj 973 320 meter~;
#X obj 994 320 meter~;
#X obj 1015 320 meter~;
#X obj 1037 320 meter~;
#X obj 1059 320 meter~;
#X obj 1079 320 meter~;
#X obj 1100 320 meter~;
#X obj 1120 320 meter~;
#X obj 1141 320 meter~;
#X obj 1160 320 meter~;
#X obj 1217 320 meter~;
#X obj 1235 320 meter~;
#X obj 1254 320 meter~;
#X obj 1274 320 meter~;
#X obj 1293 320 meter~;
#X obj 1312 320 meter~;
#X obj 1332 320 meter~;
#X obj 1352 320 meter~;
#X text 705 405 1;
#X text 729 405 2;
#X text 752 404 3;
#X text 772 404 4;
#X text 792 404 5;
#X text 813 404 6;
#X text 833 404 7;
#X text 854 404 8;
#X text 871 405 9;
#X text 892 404 10;
#X text 910 404 11;
#X text 930 405 12;
#X text 952 405 13;
#X text 971 405 14;
#X text 993 405 15;
#X text 1014 405 16;
#X text 1036 404 17;
#X text 1058 405 18;
#X text 1076 405 19;
#X text 1098 405 20;
#X text 1119 405 21;
#X text 1140 404 22;
#X text 1158 404 23;
#X text 1180 405 24;
#X text 1216 405 25;
#X text 1235 404 26;
#X text 1253 404 27;
#X text 1275 404 28;
#X text 1293 405 29;
#X text 1311 405 30;
#X text 1331 404 31;
#X text 1352 405 32;
#X obj 740 241 *~;
#X obj 769 241 *~;
#X obj 801 241 *~;
#X obj 830 240 *~;
#X obj 862 240 *~;
#X obj 892 240 *~;
#X obj 924 240 *~;
#X obj 953 239 *~;
#X obj 985 239 *~;
#X obj 1014 239 *~;
#X obj 1046 239 *~;
#X obj 1075 238 *~;
#X obj 1107 238 *~;
#X obj 1139 238 *~;
#X obj 1171 238 *~;
#X obj 1200 237 *~;
#X obj 1232 237 *~;
#X obj 1261 237 *~;
#X obj 1293 237 *~;
#X obj 1322 236 *~;
#X obj 1354 236 *~;
#X obj 1382 236 *~;
#X obj 1413 236 *~;
#X obj 1445 236 *~;
#X obj 1474 235 *~;
#X obj 1504 234 *~;
#X obj 1534 234 *~;
#X obj 1566 234 *~;
#X obj 1595 233 *~;
#X obj 1180 320 meter~;
#X obj 169 185 *~;
#X obj 201 185 *~;
#X obj 230 184 *~;
#X obj 262 184 *~;
#X obj 291 184 *~;
#X obj 323 184 *~;
#X obj 352 183 *~;
#X obj 384 183 *~;
#X obj 414 183 *~;
#X obj 446 183 *~;
#X obj 475 182 *~;
#X obj 507 182 *~;
#X obj 536 182 *~;
#X obj 568 182 *~;
#X obj 597 181 *~;
#X obj 629 181 *~;
#X obj 661 181 *~;
#X obj 693 181 *~;
#X obj 722 180 *~;
#X obj 754 180 *~;
#X obj 783 180 *~;
#X obj 815 180 *~;
#X obj 844 179 *~;
#X obj 876 179 *~;
#X obj 935 179 *~;
#X obj 967 179 *~;
#X obj 996 178 *~;
#X obj 1026 177 *~;
#X obj 1056 177 *~;
#X obj 1088 177 *~;
#X obj 1117 176 *~;
#X obj 904 179 *~;
#X obj 1269 179 *~;
#X obj 1301 179 *~;
#X obj 1330 178 *~;
#X obj 1362 178 *~;
#X obj 1391 178 *~;
#X obj 1423 178 *~;
#X obj 1452 177 *~;
#X obj 1484 177 *~;
#X obj 1514 177 *~;
#X obj 1546 177 *~;
#X obj 1575 176 *~;
#X obj 1607 176 *~;
#X obj 1636 176 *~;
#X obj 1668 176 *~;
#X obj 1697 175 *~;
#X obj 1729 175 *~;
#X obj 1761 175 *~;
#X obj 1793 175 *~;
#X obj 1822 174 *~;
#X obj 1854 174 *~;
#X obj 1883 174 *~;
#X obj 1915 174 *~;
#X obj 1944 173 *~;
#X obj 1976 173 *~;
#X obj 2035 173 *~;
#X obj 2067 173 *~;
#X obj 2096 172 *~;
#X obj 2126 171 *~;
#X obj 2156 171 *~;
#X obj 2188 171 *~;
#X obj 2217 170 *~;
#X obj 2004 173 *~;
#X text 1201 75 main audio in;
#X obj 1198 91 catch~ bus-sum;
#X obj 1376 1 r~ blip1;
#X obj 1386 21 r~ blip2;
#X obj 1396 41 r~ blip3;
#X obj 1406 61 r~ blip4;
#X obj 1516 1 r~ blip5;
#X obj 1526 21 r~ blip6;
#X obj 1536 41 r~ blip7;
#X obj 1546 61 r~ blip8;
#X obj 1656 1 r~ blip9;
#X obj 1666 21 r~ blip10;
#X obj 1676 41 r~ blip11;
#X obj 1686 61 r~ blip12;
#X obj 1788 1 r~ blip13;
#X obj 1798 21 r~ blip14;
#X obj 1808 41 r~ blip15;
#X obj 1818 61 r~ blip16;
#X obj 1926 1 r~ blip17;
#X obj 1936 21 r~ blip18;
#X obj 1946 41 r~ blip19;
#X obj 1956 61 r~ blip20;
#X obj 2066 1 r~ blip21;
#X obj 2076 21 r~ blip22;
#X obj 2086 41 r~ blip23;
#X obj 2096 61 r~ blip24;
#X obj 1372 -107 r~ x1;
#X obj 1382 -87 r~ x2;
#X obj 1392 -67 r~ x3;
#X obj 1402 -47 r~ x4;
#X obj 1508 -111 r~ x5;
#X obj 1518 -91 r~ x6;
#X obj 1528 -71 r~ x7;
#X obj 1538 -51 r~ x8;
#X obj 1638 -114 r~ x9;
#X obj 1648 -94 r~ x10;
#X obj 1658 -74 r~ x11;
#X obj 1668 -54 r~ x12;
#X obj 1748 -111 r~ x13;
#X obj 1758 -91 r~ x14;
#X obj 1768 -71 r~ x15;
#X obj 1778 -51 r~ x16;
#X obj 1905 -111 r~ x17;
#X obj 1915 -91 r~ x18;
#X obj 1925 -71 r~ x19;
#X obj 1935 -51 r~ x20;
#X obj 2046 -112 r~ x21;
#X obj 2056 -92 r~ x22;
#X obj 2066 -72 r~ x23;
#X obj 2076 -52 r~ x24;
#X obj 97 -2 r~ miap1;
#X obj 107 18 r~ miap2;
#X obj 117 38 r~ miap3;
#X obj 127 58 r~ miap4;
#X obj 237 -2 r~ miap5;
#X obj 247 18 r~ miap6;
#X obj 257 38 r~ miap7;
#X obj 267 58 r~ miap8;
#X obj 377 -2 r~ miap9;
#X obj 387 18 r~ miap10;
#X obj 397 39 r~ miap11;
#X obj 407 58 r~ miap12;
#X obj 509 -2 r~ miap13;
#X obj 519 18 r~ miap14;
#X obj 529 38 r~ miap15;
#X obj 539 58 r~ miap16;
#X obj 647 -2 r~ miap17;
#X obj 657 18 r~ miap18;
#X obj 667 38 r~ miap19;
#X obj 677 58 r~ miap20;
#X obj 787 -2 r~ miap21;
#X obj 797 18 r~ miap22;
#X obj 807 38 r~ miap23;
#X obj 817 58 r~ miap24;
#X floatatom 1130 461 5 0 0 0 - - -;
#X obj 1028 502 inlet;
#X obj 773 270 dac~ 1 2 3 4 5 6 7 8 9 10 11 12 13 14 15 16 17 18 19
20 21 22 23 24, f 91;
#X connect 0 0 95 1;
#X connect 0 0 94 1;
#X connect 0 0 93 1;
#X connect 0 0 92 1;
#X connect 0 0 91 1;
#X connect 0 0 90 1;
#X connect 0 0 89 1;
#X connect 0 0 88 1;
#X connect 0 0 87 1;
#X connect 0 0 86 1;
#X connect 0 0 85 1;
#X connect 0 0 84 1;
#X connect 0 0 83 1;
#X connect 0 0 82 1;
#X connect 0 0 81 1;
#X connect 0 0 80 1;
#X connect 0 0 79 1;
#X connect 0 0 78 1;
#X connect 0 0 77 1;
#X connect 0 0 76 1;
#X connect 0 0 75 1;
#X connect 0 0 74 1;
#X connect 0 0 73 1;
#X connect 0 0 72 1;
#X connect 0 0 71 1;
#X connect 0 0 70 1;
#X connect 0 0 69 1;
#X connect 0 0 68 1;
#X connect 0 0 67 1;
#X connect 0 0 3 1;
#X connect 0 0 2 1;
#X connect 0 0 1 1;
#X connect 0 0 235 0;
#X connect 1 0 4 0;
#X connect 1 0 237 0;
#X connect 2 0 5 0;
#X connect 2 0 237 1;
#X connect 3 0 6 0;
#X connect 3 0 237 2;
#X connect 67 0 7 0;
#X connect 67 0 237 3;
#X connect 68 0 8 0;
#X connect 68 0 237 4;
#X connect 69 0 9 0;
#X connect 69 0 237 5;
#X connect 70 0 10 0;
#X connect 70 0 237 6;
#X connect 71 0 11 0;
#X connect 71 0 237 7;
#X connect 72 0 12 0;
#X connect 72 0 237 8;
#X connect 73 0 13 0;
#X connect 73 0 237 9;
#X connect 74 0 14 0;
#X connect 74 0 237 10;
#X connect 75 0 15 0;
#X connect 75 0 237 11;
#X connect 76 0 16 0;
#X connect 76 0 237 12;
#X connect 77 0 17 0;
#X connect 77 0 237 13;
#X connect 78 0 18 0;
#X connect 78 0 237 14;
#X connect 79 0 19 0;
#X connect 79 0 237 15;
#X connect 80 0 20 0;
#X connect 80 0 237 16;
#X connect 81 0 21 0;
#X connect 81 0 237 17;
#X connect 82 0 22 0;
#X connect 82 0 237 18;
#X connect 83 0 23 0;
#X connect 83 0 237 19;
#X connect 84 0 24 0;
#X connect 84 0 237 20;
#X connect 85 0 25 0;
#X connect 85 0 237 21;
#X connect 86 0 26 0;
#X connect 86 0 237 22;
#X connect 87 0 96 0;
#X connect 87 0 237 23;
#X connect 88 0 27 0;
#X connect 89 0 28 0;
#X connect 90 0 29 0;
#X connect 91 0 30 0;
#X connect 92 0 31 0;
#X connect 93 0 32 0;
#X connect 94 0 33 0;
#X connect 95 0 34 0;
#X connect 97 0 1 0;
#X connect 98 0 2 0;
#X connect 99 0 3 0;
#X connect 100 0 67 0;
#X connect 101 0 68 0;
#X connect 102 0 69 0;
#X connect 103 0 70 0;
#X connect 104 0 71 0;
#X connect 105 0 72 0;
#X connect 106 0 73 0;
#X connect 107 0 74 0;
#X connect 108 0 75 0;
#X connect 109 0 76 0;
#X connect 110 0 77 0;
#X connect 111 0 78 0;
#X connect 112 0 79 0;
#X connect 113 0 80 0;
#X connect 114 0 81 0;
#X connect 115 0 82 0;
#X connect 116 0 83 0;
#X connect 117 0 84 0;
#X connect 118 0 85 0;
#X connect 119 0 86 0;
#X connect 120 0 87 0;
#X connect 121 0 89 0;
#X connect 122 0 90 0;
#X connect 123 0 91 0;
#X connect 124 0 92 0;
#X connect 125 0 93 0;
#X connect 126 0 94 0;
#X connect 127 0 95 0;
#X connect 128 0 88 0;
#X connect 129 0 1 0;
#X connect 130 0 2 0;
#X connect 131 0 3 0;
#X connect 132 0 67 0;
#X connect 133 0 68 0;
#X connect 134 0 69 0;
#X connect 135 0 70 0;
#X connect 136 0 71 0;
#X connect 137 0 72 0;
#X connect 138 0 73 0;
#X connect 139 0 74 0;
#X connect 140 0 75 0;
#X connect 141 0 76 0;
#X connect 142 0 77 0;
#X connect 143 0 78 0;
#X connect 144 0 79 0;
#X connect 145 0 80 0;
#X connect 146 0 81 0;
#X connect 147 0 82 0;
#X connect 148 0 83 0;
#X connect 149 0 84 0;
#X connect 150 0 85 0;
#X connect 151 0 86 0;
#X connect 152 0 87 0;
#X connect 153 0 89 0;
#X connect 154 0 90 0;
#X connect 155 0 91 0;
#X connect 156 0 92 0;
#X connect 157 0 93 0;
#X connect 158 0 94 0;
#X connect 159 0 95 0;
#X connect 160 0 88 0;
#X connect 162 0 129 0;
#X connect 162 0 160 0;
#X connect 162 0 159 0;
#X connect 162 0 158 0;
#X connect 162 0 157 0;
#X connect 162 0 156 0;
#X connect 162 0 155 0;
#X connect 162 0 154 0;
#X connect 162 0 153 0;
#X connect 162 0 152 0;
#X connect 162 0 151 0;
#X connect 162 0 150 0;
#X connect 162 0 149 0;
#X connect 162 0 148 0;
#X connect 162 0 147 0;
#X connect 162 0 146 0;
#X connect 162 0 145 0;
#X connect 162 0 144 0;
#X connect 162 0 143 0;
#X connect 162 0 142 0;
#X connect 162 0 141 0;
#X connect 162 0 140 0;
#X connect 162 0 139 0;
#X connect 162 0 138 0;
#X connect 162 0 137 0;
#X connect 162 0 136 0;
#X connect 162 0 135 0;
#X connect 162 0 134 0;
#X connect 162 0 133 0;
#X connect 162 0 132 0;
#X connect 162 0 131 0;
#X connect 162 0 130 0;
#X connect 162 0 127 0;
#X connect 162 0 128 0;
#X connect 162 0 126 0;
#X connect 162 0 125 0;
#X connect 162 0 124 0;
#X connect 162 0 123 0;
#X connect 162 0 122 0;
#X connect 162 0 121 0;
#X connect 162 0 120 0;
#X connect 162 0 119 0;
#X connect 162 0 118 0;
#X connect 162 0 117 0;
#X connect 162 0 116 0;
#X connect 162 0 115 0;
#X connect 162 0 114 0;
#X connect 162 0 113 0;
#X connect 162 0 112 0;
#X connect 162 0 111 0;
#X connect 162 0 110 0;
#X connect 162 0 109 0;
#X connect 162 0 108 0;
#X connect 162 0 107 0;
#X connect 162 0 106 0;
#X connect 162 0 105 0;
#X connect 162 0 104 0;
#X connect 162 0 103 0;
#X connect 162 0 102 0;
#X connect 162 0 101 0;
#X connect 162 0 100 0;
#X connect 162 0 99 0;
#X connect 162 0 98 0;
#X connect 162 0 97 0;
#X connect 163 0 129 1;
#X connect 164 0 130 1;
#X connect 165 0 131 1;
#X connect 166 0 132 1;
#X connect 167 0 133 1;
#X connect 168 0 134 1;
#X connect 169 0 135 1;
#X connect 170 0 136 1;
#X connect 171 0 137 1;
#X connect 172 0 138 1;
#X connect 173 0 139 1;
#X connect 174 0 140 1;
#X connect 175 0 141 1;
#X connect 176 0 142 1;
#X connect 177 0 143 1;
#X connect 178 0 144 1;
#X connect 179 0 145 1;
#X connect 180 0 146 1;
#X connect 181 0 147 1;
#X connect 182 0 148 1;
#X connect 183 0 149 1;
#X connect 184 0 150 1;
#X connect 185 0 151 1;
#X connect 186 0 152 1;
#X connect 187 0 129 0;
#X connect 188 0 130 0;
#X connect 189 0 131 0;
#X connect 190 0 132 0;
#X connect 191 0 133 0;
#X connect 192 0 134 0;
#X connect 193 0 135 0;
#X connect 194 0 136 0;
#X connect 195 0 137 0;
#X connect 196 0 138 0;
#X connect 197 0 139 0;
#X connect 198 0 140 0;
#X connect 199 0 141 0;
#X connect 200 0 142 0;
#X connect 201 0 143 0;
#X connect 202 0 144 0;
#X connect 203 0 145 0;
#X connect 204 0 146 0;
#X connect 205 0 147 0;
#X connect 206 0 148 0;
#X connect 207 0 149 0;
#X connect 208 0 150 0;
#X connect 209 0 151 0;
#X connect 210 0 152 0;
#X connect 211 0 97 1;
#X connect 212 0 98 1;
#X connect 213 0 99 1;
#X connect 214 0 100 1;
#X connect 215 0 101 1;
#X connect 216 0 102 1;
#X connect 217 0 103 1;
#X connect 218 0 104 1;
#X connect 219 0 105 1;
#X connect 220 0 106 1;
#X connect 221 0 107 1;
#X connect 222 0 108 1;
#X connect 223 0 109 1;
#X connect 224 0 110 1;
#X connect 225 0 111 1;
#X connect 226 0 112 1;
#X connect 227 0 113 1;
#X connect 228 0 114 1;
#X connect 229 0 115 1;
#X connect 230 0 116 1;
#X connect 231 0 117 1;
#X connect 232 0 118 1;
#X connect 233 0 119 1;
#X connect 234 0 120 1;
#X connect 236 0 0 0;
#X coords 0 -1 1 1 500 120 1 700 300;
