#N canvas 341 522 1277 755 10;
#X floatatom 98 381 0 0 0 0 - - -;
#X obj 98 443 line~;
#X floatatom 308 382 0 0 0 0 - - -;
#X obj 308 444 line~;
#X floatatom 498 383 0 0 0 0 - - -;
#X obj 498 445 line~;
#X floatatom 708 384 0 0 0 0 - - -;
#X obj 708 446 line~;
#X obj 708 425 pack \$1 \$2;
#X floatatom 765 405 5 0 0 0 - - -;
#X obj 498 424 pack \$1 \$2;
#X obj 308 423 pack \$1 \$2;
#X obj 98 422 pack \$1 \$2;
#X floatatom 155 402 5 0 0 0 - - -;
#X floatatom 365 403 5 0 0 0 - - -;
#X floatatom 555 404 5 0 0 0 - - -;
#X floatatom 918 384 0 0 0 0 - - -;
#X obj 918 446 line~;
#X obj 918 425 pack \$1 \$2;
#X floatatom 975 405 5 0 0 0 - - -;
#X floatatom 1108 384 0 0 0 0 - - -;
#X obj 1108 446 line~;
#X obj 1108 425 pack \$1 \$2;
#X floatatom 1165 405 5 0 0 0 - - -;
#X obj 65 159 sel 0 1;
#X obj 65 139 random 2;
#X obj 35 99 tgl 15 0 empty empty empty 17 7 0 10 -262144 -1 -1 0 1
;
#X obj 98 266 f;
#X obj 35 189 tgl 15 0 empty empty empty 17 7 0 10 -262144 -1 -1 1
1;
#X obj 122 189 tgl 15 0 empty empty empty 17 7 0 10 -262144 -1 -1 1
1;
#X floatatom 98 287 5 0 0 0 - - -;
#X obj 98 306 abs;
#X msg 8 234 0;
#X obj 275 160 sel 0 1;
#X obj 275 140 random 2;
#X obj 275 100 tgl 15 0 empty empty empty 17 7 0 10 -262144 -1 -1 0
1;
#X obj 308 267 f;
#X obj 275 190 tgl 15 0 empty empty empty 17 7 0 10 -262144 -1 -1 0
1;
#X obj 332 190 tgl 15 0 empty empty empty 17 7 0 10 -262144 -1 -1 0
1;
#X floatatom 308 288 5 0 0 0 - - -;
#X obj 308 307 abs;
#X msg 248 234 0;
#X obj 465 162 sel 0 1;
#X obj 465 142 random 2;
#X obj 465 102 tgl 15 0 empty empty empty 17 7 0 10 -262144 -1 -1 0
1;
#X obj 498 269 f;
#X obj 465 192 tgl 15 0 empty empty empty 17 7 0 10 -262144 -1 -1 1
1;
#X obj 522 192 tgl 15 0 empty empty empty 17 7 0 10 -262144 -1 -1 1
1;
#X floatatom 498 290 5 0 0 0 - - -;
#X obj 498 309 abs;
#X msg 438 233 0;
#X obj 675 165 sel 0 1;
#X obj 675 145 random 2;
#X obj 675 105 tgl 15 0 empty empty empty 17 7 0 10 -262144 -1 -1 0
1;
#X obj 708 272 f;
#X obj 675 195 tgl 15 0 empty empty empty 17 7 0 10 -262144 -1 -1 0
1;
#X obj 732 195 tgl 15 0 empty empty empty 17 7 0 10 -262144 -1 -1 0
1;
#X floatatom 708 293 5 0 0 0 - - -;
#X obj 708 312 abs;
#X msg 648 236 0;
#X obj 885 178 sel 0 1;
#X obj 885 158 random 2;
#X obj 885 118 tgl 15 0 empty empty empty 17 7 0 10 -262144 -1 -1 0
1;
#X obj 918 285 f;
#X obj 885 208 tgl 15 0 empty empty empty 17 7 0 10 -262144 -1 -1 1
1;
#X obj 942 208 tgl 15 0 empty empty empty 17 7 0 10 -262144 -1 -1 1
1;
#X floatatom 918 306 5 0 0 0 - - -;
#X obj 918 325 abs;
#X msg 858 249 0;
#X obj 1075 173 sel 0 1;
#X obj 1075 153 random 2;
#X obj 1075 113 tgl 15 0 empty empty empty 17 7 0 10 -262144 -1 -1
0 1;
#X obj 1108 280 f;
#X obj 1075 203 tgl 15 0 empty empty empty 17 7 0 10 -262144 -1 -1
1 1;
#X obj 1132 203 tgl 15 0 empty empty empty 17 7 0 10 -262144 -1 -1
1 1;
#X floatatom 1108 301 5 0 0 0 - - -;
#X obj 1108 320 abs;
#X msg 1068 244 0;
#X obj 592 52 tgl 15 0 empty empty empty 17 7 0 10 -262144 -1 -1 0
1;
#X obj 65 209 metro 15;
#X obj 122 209 metro 15;
#X obj 275 210 metro 15;
#X obj 332 210 metro 15;
#X obj 465 212 metro 15;
#X obj 522 212 metro 15;
#X obj 675 215 metro 15;
#X obj 732 215 metro 15;
#X obj 885 228 metro 15;
#X obj 942 228 metro 15;
#X obj 1075 223 metro 15;
#X obj 1132 223 metro 15;
#X obj 65 119 metro 100;
#X obj 275 120 metro 100;
#X obj 465 121 metro 100;
#X obj 675 125 metro 100;
#X obj 885 138 metro 100;
#X obj 1075 133 metro 100;
#X obj 65 265 + 10;
#X obj 139 267 - 10;
#X obj 275 266 + 10;
#X obj 349 268 - 10;
#X obj 465 268 + 10;
#X obj 539 270 - 10;
#X obj 675 271 + 10;
#X obj 749 273 - 10;
#X obj 885 281 + 10;
#X obj 959 286 - 10;
#X obj 1075 279 + 10;
#X obj 1149 281 - 10;
#X obj 98 328 +;
#X obj 308 329 +;
#X obj 498 331 +;
#X obj 708 334 +;
#X obj 918 347 +;
#X obj 1108 342 +;
#X obj 600 327 loadbang;
#X msg 600 348 500;
#X obj 172 84 change;
#X obj 172 106 sel 0 1;
#X obj 172 39 env~;
#X floatatom 212 61 5 0 0 0 - - -;
#X msg 172 167 0;
#X msg 191 126 1;
#X obj 172 146 delay 3000;
#X obj 907 68 bng 15 250 50 0 empty empty empty 17 7 0 10 -262144 -1
-1;
#X floatatom 949 77 5 0 0 0 - - -;
#X obj 885 32 bng 15 250 50 0 empty empty empty 17 7 0 10 -262144 -1
-1;
#X obj 678 20 inlet~;
#X obj 295 63 bng 15 250 50 0 empty empty empty 17 7 0 10 -262144 -1
-1;
#X obj 211 230 bng 15 250 50 0 empty empty empty 17 7 0 10 -262144
-1 -1;
#X obj 114 81 bng 15 250 50 0 empty empty empty 17 7 0 10 -262144 -1
-1;
#X obj 993 75 s formant-off;
#X obj 98 539 *~ 1;
#X obj 98 560 outlet~;
#X obj 308 539 *~ 1;
#X obj 308 560 outlet~;
#X obj 498 539 *~ 1;
#X obj 498 560 outlet~;
#X obj 708 539 *~ 1;
#X obj 708 560 outlet~;
#X obj 918 539 *~ 1;
#X obj 918 560 outlet~;
#X obj 1108 539 *~ 1;
#X obj 1108 560 outlet~;
#X obj 678 49 delwrite~ \$0-chime1 1000;
#X obj 128 491 delwrite~ \$0-chime2 50000;
#X obj 308 466 delread4~ \$0-chime2;
#X obj 318 492 delwrite~ \$0-chime3 50000;
#X obj 498 467 delread4~ \$0-chime3;
#X obj 528 493 delwrite~ \$0-chime4 50000;
#X obj 708 468 delread4~ \$0-chime4;
#X obj 718 494 delwrite~ \$0-chime5 50000;
#X obj 918 468 delread4~ \$0-chime5;
#X obj 928 494 delwrite~ \$0-chime6 50000;
#X obj 1108 468 delread4~ \$0-chime6;
#X obj 1118 494 delwrite~ \$0-chime7 50000;
#X obj 98 465 delread4~ \$0-chime1;
#X obj 1000 33 spigot;
#X obj 1054 31 tgl 15 0 empty empty empty 17 7 0 10 -262144 -1 -1 1
1;
#X obj 1053 56 bng 15 250 50 0 empty empty empty 17 7 0 10 -262144
-1 -1;
#X obj 1133 33 r gate-open;
#X msg 1133 54 1;
#X obj 912 48 sel 1;
#X obj 912 27 random 500;
#X floatatom 979 8 5 0 0 0 - - -;
#X text 1012 6 lower this number if its taking too long;
#X obj 172 62 > 107;
#X text 117 60 108?????;
#X connect 0 0 12 0;
#X connect 1 0 156 0;
#X connect 2 0 11 0;
#X connect 3 0 146 0;
#X connect 4 0 10 0;
#X connect 5 0 148 0;
#X connect 6 0 8 0;
#X connect 7 0 150 0;
#X connect 8 0 7 0;
#X connect 9 0 8 1;
#X connect 10 0 5 0;
#X connect 11 0 3 0;
#X connect 12 0 1 0;
#X connect 13 0 12 1;
#X connect 14 0 11 1;
#X connect 15 0 10 1;
#X connect 16 0 18 0;
#X connect 17 0 152 0;
#X connect 18 0 17 0;
#X connect 19 0 18 1;
#X connect 20 0 22 0;
#X connect 21 0 154 0;
#X connect 22 0 21 0;
#X connect 23 0 22 1;
#X connect 24 0 28 0;
#X connect 24 1 29 0;
#X connect 25 0 24 0;
#X connect 26 0 91 0;
#X connect 27 0 30 0;
#X connect 27 0 31 0;
#X connect 27 0 97 0;
#X connect 27 0 98 0;
#X connect 28 0 79 0;
#X connect 29 0 80 0;
#X connect 31 0 109 0;
#X connect 32 0 27 0;
#X connect 33 0 37 0;
#X connect 33 1 38 0;
#X connect 34 0 33 0;
#X connect 35 0 92 0;
#X connect 36 0 39 0;
#X connect 36 0 40 0;
#X connect 36 0 99 0;
#X connect 36 0 100 0;
#X connect 37 0 81 0;
#X connect 38 0 82 0;
#X connect 40 0 110 0;
#X connect 41 0 36 0;
#X connect 42 0 46 0;
#X connect 42 1 47 0;
#X connect 43 0 42 0;
#X connect 44 0 93 0;
#X connect 45 0 48 0;
#X connect 45 0 49 0;
#X connect 45 0 101 0;
#X connect 45 0 102 0;
#X connect 46 0 83 0;
#X connect 47 0 84 0;
#X connect 49 0 111 0;
#X connect 50 0 45 0;
#X connect 51 0 55 0;
#X connect 51 1 56 0;
#X connect 52 0 51 0;
#X connect 53 0 94 0;
#X connect 54 0 57 0;
#X connect 54 0 58 0;
#X connect 54 0 103 0;
#X connect 54 0 104 0;
#X connect 55 0 85 0;
#X connect 56 0 86 0;
#X connect 58 0 112 0;
#X connect 59 0 54 0;
#X connect 60 0 64 0;
#X connect 60 1 65 0;
#X connect 61 0 60 0;
#X connect 62 0 95 0;
#X connect 63 0 66 0;
#X connect 63 0 67 0;
#X connect 63 0 105 0;
#X connect 63 0 106 0;
#X connect 64 0 87 0;
#X connect 65 0 88 0;
#X connect 67 0 113 0;
#X connect 68 0 63 0;
#X connect 69 0 73 0;
#X connect 69 1 74 0;
#X connect 70 0 69 0;
#X connect 71 0 96 0;
#X connect 72 0 75 0;
#X connect 72 0 76 0;
#X connect 72 0 107 0;
#X connect 72 0 108 0;
#X connect 73 0 89 0;
#X connect 74 0 90 0;
#X connect 76 0 114 0;
#X connect 77 0 72 0;
#X connect 78 0 26 0;
#X connect 78 0 71 0;
#X connect 78 0 62 0;
#X connect 78 0 53 0;
#X connect 78 0 44 0;
#X connect 78 0 35 0;
#X connect 79 0 27 0;
#X connect 79 0 97 0;
#X connect 80 0 27 0;
#X connect 80 0 98 0;
#X connect 81 0 36 0;
#X connect 81 0 99 0;
#X connect 82 0 36 0;
#X connect 82 0 100 0;
#X connect 83 0 45 0;
#X connect 83 0 101 0;
#X connect 84 0 45 0;
#X connect 84 0 102 0;
#X connect 85 0 54 0;
#X connect 85 0 103 0;
#X connect 86 0 54 0;
#X connect 86 0 104 0;
#X connect 87 0 63 0;
#X connect 87 0 105 0;
#X connect 88 0 63 0;
#X connect 88 0 106 0;
#X connect 89 0 72 0;
#X connect 89 0 107 0;
#X connect 90 0 72 0;
#X connect 90 0 108 0;
#X connect 91 0 25 0;
#X connect 92 0 34 0;
#X connect 93 0 43 0;
#X connect 94 0 52 0;
#X connect 95 0 61 0;
#X connect 96 0 70 0;
#X connect 97 0 27 1;
#X connect 98 0 27 1;
#X connect 99 0 36 1;
#X connect 100 0 36 1;
#X connect 101 0 45 1;
#X connect 102 0 45 1;
#X connect 103 0 54 1;
#X connect 104 0 54 1;
#X connect 105 0 63 1;
#X connect 106 0 63 1;
#X connect 107 0 72 1;
#X connect 108 0 72 1;
#X connect 109 0 0 0;
#X connect 110 0 2 0;
#X connect 111 0 4 0;
#X connect 112 0 6 0;
#X connect 113 0 16 0;
#X connect 114 0 20 0;
#X connect 115 0 116 0;
#X connect 116 0 13 0;
#X connect 116 0 23 0;
#X connect 116 0 19 0;
#X connect 116 0 15 0;
#X connect 116 0 14 0;
#X connect 116 0 9 0;
#X connect 117 0 118 0;
#X connect 117 0 130 0;
#X connect 118 0 123 0;
#X connect 118 1 122 0;
#X connect 118 2 128 0;
#X connect 119 0 120 0;
#X connect 119 0 166 0;
#X connect 121 0 78 0;
#X connect 121 0 129 0;
#X connect 122 0 78 0;
#X connect 122 0 126 0;
#X connect 123 0 121 0;
#X connect 124 0 77 0;
#X connect 124 0 32 0;
#X connect 124 0 41 0;
#X connect 124 0 50 0;
#X connect 124 0 59 0;
#X connect 124 0 68 0;
#X connect 126 0 163 0;
#X connect 127 0 119 0;
#X connect 127 0 144 0;
#X connect 132 0 133 0;
#X connect 134 0 135 0;
#X connect 136 0 137 0;
#X connect 138 0 139 0;
#X connect 140 0 141 0;
#X connect 142 0 143 0;
#X connect 146 0 134 0;
#X connect 146 0 147 0;
#X connect 148 0 136 0;
#X connect 148 0 149 0;
#X connect 150 0 138 0;
#X connect 150 0 151 0;
#X connect 152 0 140 0;
#X connect 152 0 153 0;
#X connect 154 0 142 0;
#X connect 154 0 155 0;
#X connect 156 0 132 0;
#X connect 156 0 145 0;
#X connect 157 0 131 0;
#X connect 157 0 159 0;
#X connect 158 0 157 1;
#X connect 160 0 161 0;
#X connect 161 0 158 0;
#X connect 162 0 124 0;
#X connect 162 0 157 0;
#X connect 163 0 125 0;
#X connect 163 0 162 0;
#X connect 164 0 163 1;
#X connect 166 0 117 0;
