#N canvas 0 23 1280 755 10;
#X obj 465 545 bus-sum;
#X obj 722 59 tgl 15 0 empty empty empty 17 7 0 10 -262144 -1 -1 0
1;
#X obj 722 121 + 1;
#X obj 954 217 formant-fake;
#X obj 954 196 tgl 15 0 empty empty empty 17 7 0 10 -262144 -1 -1 0
1;
#X obj 954 154 r formant-off;
#X msg 954 175 0;
#X obj 954 242 delaysystem;
#X obj 897 277 s~ x1;
#X obj 898 302 s~ x2;
#X obj 943 375 s~ x3;
#X obj 989 345 s~ x4;
#X obj 987 369 s~ x5;
#X obj 943 348 s~ x6;
#X obj 1036 322 s~ x7;
#X obj 1038 392 s~ x8;
#X obj 992 391 s~ x9;
#X obj 1036 366 s~ x10;
#X obj 945 277 s~ x11;
#X obj 987 300 s~ x12;
#X obj 897 348 s~ x13;
#X obj 892 373 s~ x14;
#X obj 895 393 s~ x15;
#X obj 894 326 s~ x16;
#X obj 939 326 s~ x17;
#X obj 943 395 s~ x18;
#X obj 1036 343 s~ x19;
#X obj 991 277 s~ x20;
#X obj 989 322 s~ x21;
#X obj 1039 279 s~ x22;
#X obj 939 302 s~ x23;
#X obj 1038 299 s~ x24;
#X obj 802 59 tgl 15 0 empty empty empty 17 7 0 10 -262144 -1 -1 0
1;
#X obj 802 121 + 1;
#X obj 802 100 random 32;
#X obj 882 59 tgl 15 0 empty empty empty 17 7 0 10 -262144 -1 -1 0
1;
#X obj 882 121 + 1;
#X obj 882 100 random 32;
#X obj 962 59 tgl 15 0 empty empty empty 17 7 0 10 -262144 -1 -1 0
1;
#X obj 962 121 + 1;
#X obj 962 100 random 32;
#X obj 1042 59 tgl 15 0 empty empty empty 17 7 0 10 -262144 -1 -1 0
1;
#X obj 1042 121 + 1;
#X obj 1042 100 random 32;
#X obj 106 389 delaysystem;
#X obj 106 364 formant-fake;
#X obj 106 343 tgl 15 0 empty empty empty 17 7 0 10 -262144 -1 -1 0
1;
#X obj 106 301 r formant-off;
#X msg 106 322 0;
#X obj 722 100 random 32;
#X obj 76 528 throw~ bus-sum;
#X obj 357 347 hsl 32 15 -1 1 0 1 empty empty empty -2 -8 0 10 -262144
-1 -1 0 1;
#X text 347 331 pan maps;
#X obj 352 214 line;
#X floatatom 352 171 5 0 0 0 - - -;
#X obj 417 258 mod 1000;
#X obj 417 215 f;
#X obj 417 173 tgl 15 0 empty empty empty 17 7 0 10 -262144 -1 -1 0
1;
#X obj 417 193 metro 25;
#X obj 441 215 - 1;
#X obj 417 235 + 1000;
#X obj 400 342 vradio 15 1 1 2 empty empty empty 0 -8 0 10 -262144
-1 -1 0;
#X obj 354 379 miap-control;
#X obj 423 342 vradio 15 1 1 2 empty empty empty 0 -8 0 10 -262144
-1 -1 1;
#X floatatom 370 235 5 0 0 0 - - -;
#X text 438 343 bloom;
#X text 438 358 snake;
#X obj 695 26 t b b;
#X obj 913 25 delay 20000;
#X obj 1002 25 delay 10000;
#X obj 1083 25 delay 5000;
#X floatatom 111 203 5 0 0 0 - - -;
#X obj 98 132 tower;
#X obj 98 113 tgl 15 0 empty empty empty 17 7 0 10 -262144 -1 -1 0
1;
#X obj 111 160 sel 1;
#X obj 111 227 pack;
#X obj 111 181 random 1000;
#X obj 36 238 phasor~;
#X obj 52 266 phasor~;
#X msg 111 248 \$1 \$2;
#X obj 111 269 line;
#X msg 352 193 \$1 300000;
#X msg 352 148 1000;
#X obj 637 26 sel 600;
#X obj 836 15 sel 1000;
#X obj 747 25 delay 20000;
#X obj 1042 79 metro 250;
#X obj 962 79 metro 555;
#X obj 722 79 metro 9999;
#X msg 606 243 1;
#X obj 834 40 s gate-open;
#X obj 579 213 t b b;
#X obj 621 213 delay 7000;
#X obj 882 79 metro 999;
#X obj 802 79 metro 3000;
#X obj 902 5 s redrone;
#X msg 256 226 1;
#X msg 288 225 900;
#X obj 312 253 sel 900;
#X obj 352 19 bng 15 250 50 0 empty empty START 17 7 0 10 -258113 -1
-1;
#X obj 432 117 s vol;
#X obj 465 517 r vol;
#X text 471 531 inlet for amplitude (0-1) /// 0.2 is a good place to
start \, and initiated by default, f 88;
#X text 12 6 STACCATO OVERFLOW;
#X obj 256 176 r redrone;
#X obj 256 197 t b b;
#X text 8 21 tanner noykoa \, 2019;
#X obj 432 96 line;
#X msg 432 75 0.2 \, 0 750;
#X obj 808 233 blip24, f 12;
#X obj 354 431 miap24;
#X obj 354 291 loadbang;
#X msg 354 312 -1;
#X obj 432 54 delay 1 20 min;
#X obj 352 57 t b b;
#X msg 379 86 0.2;
#X obj 379 107 s vol;
#X connect 1 0 88 0;
#X connect 2 0 109 0;
#X connect 3 0 7 0;
#X connect 4 0 3 0;
#X connect 4 0 3 1;
#X connect 5 0 6 0;
#X connect 5 0 92 0;
#X connect 6 0 4 0;
#X connect 7 0 9 0;
#X connect 7 0 19 0;
#X connect 7 0 30 0;
#X connect 7 1 18 0;
#X connect 7 1 27 0;
#X connect 7 1 29 0;
#X connect 7 1 8 0;
#X connect 7 2 23 0;
#X connect 7 2 14 0;
#X connect 7 2 24 0;
#X connect 7 2 28 0;
#X connect 7 3 20 0;
#X connect 7 3 11 0;
#X connect 7 3 13 0;
#X connect 7 3 26 0;
#X connect 7 4 21 0;
#X connect 7 4 10 0;
#X connect 7 4 17 0;
#X connect 7 4 12 0;
#X connect 7 4 31 0;
#X connect 7 5 22 0;
#X connect 7 5 25 0;
#X connect 7 5 16 0;
#X connect 7 5 15 0;
#X connect 32 0 94 0;
#X connect 33 0 109 1;
#X connect 34 0 33 0;
#X connect 35 0 93 0;
#X connect 36 0 109 2;
#X connect 37 0 36 0;
#X connect 38 0 87 0;
#X connect 39 0 109 3;
#X connect 40 0 39 0;
#X connect 41 0 86 0;
#X connect 42 0 109 4;
#X connect 43 0 42 0;
#X connect 44 0 50 0;
#X connect 44 1 50 0;
#X connect 44 2 50 0;
#X connect 44 3 50 0;
#X connect 44 4 50 0;
#X connect 44 5 50 0;
#X connect 45 0 44 0;
#X connect 46 0 45 0;
#X connect 46 0 45 1;
#X connect 47 0 48 0;
#X connect 48 0 46 0;
#X connect 49 0 2 0;
#X connect 51 0 62 0;
#X connect 53 0 62 1;
#X connect 53 0 64 0;
#X connect 53 0 83 0;
#X connect 53 0 84 0;
#X connect 53 0 98 0;
#X connect 54 0 81 0;
#X connect 55 0 62 1;
#X connect 56 0 59 0;
#X connect 56 0 60 0;
#X connect 57 0 58 0;
#X connect 58 0 56 0;
#X connect 59 0 56 1;
#X connect 60 0 55 0;
#X connect 61 0 62 2;
#X connect 62 0 110 0;
#X connect 63 0 62 3;
#X connect 67 0 4 0;
#X connect 67 1 1 0;
#X connect 67 1 85 0;
#X connect 68 0 69 0;
#X connect 69 0 70 0;
#X connect 69 0 38 0;
#X connect 70 0 41 0;
#X connect 71 0 75 0;
#X connect 72 0 50 0;
#X connect 72 1 74 0;
#X connect 72 2 75 1;
#X connect 73 0 72 0;
#X connect 74 0 76 0;
#X connect 75 0 77 0;
#X connect 75 0 79 0;
#X connect 76 0 71 0;
#X connect 77 0 50 0;
#X connect 78 0 50 0;
#X connect 79 0 80 0;
#X connect 80 0 62 1;
#X connect 80 0 78 0;
#X connect 81 0 53 0;
#X connect 82 0 54 0;
#X connect 83 0 67 0;
#X connect 84 0 35 0;
#X connect 84 0 68 0;
#X connect 84 0 90 0;
#X connect 84 0 95 0;
#X connect 85 0 32 0;
#X connect 86 0 43 0;
#X connect 87 0 40 0;
#X connect 88 0 49 0;
#X connect 89 0 51 0;
#X connect 91 0 73 0;
#X connect 91 1 89 0;
#X connect 91 1 57 0;
#X connect 92 0 91 0;
#X connect 93 0 37 0;
#X connect 94 0 34 0;
#X connect 96 0 46 0;
#X connect 97 0 54 0;
#X connect 98 0 48 0;
#X connect 99 0 113 0;
#X connect 99 0 114 0;
#X connect 101 0 0 0;
#X connect 104 0 105 0;
#X connect 105 0 97 0;
#X connect 105 1 96 0;
#X connect 107 0 100 0;
#X connect 108 0 107 0;
#X connect 111 0 112 0;
#X connect 112 0 51 0;
#X connect 113 0 108 0;
#X connect 114 0 82 0;
#X connect 114 1 115 0;
#X connect 115 0 116 0;
