#N canvas 239 160 958 554 10;
#X obj 125 474 print gains;
#X obj 98 452 MIAP, f 5;
#X msg 48 214 pan \$1;
#X text 136 447 only connect when necesary \, slows everything down
extremely, f 32;
#X obj 98 192 pack 0 0;
#X floatatom 98 131 5 0 0 0 - - -;
#X floatatom 116 149 5 0 0 0 - - -;
#X msg 98 214 coords \$1 \$2;
#X text 129 127 coords;
#X obj 116 168 t b f;
#X obj 133 523 outlet;
#X obj 260 180 sel 1;
#X obj 250 160 sel 0;
#X obj 270 200 sel 2;
#X obj 280 220 sel 3;
#X obj 480 180 sel 1;
#X obj 470 160 sel 0;
#X obj 490 200 sel 2;
#X obj 500 220 sel 3;
#X text 171 16 1 pan 2 coords 3 map a 4 map b;
#X obj 20 85 inlet;
#X obj 102 87 inlet;
#X obj 320 85 inlet;
#X obj 402 87 inlet;
#X obj 98 497 cyclone/zl delace;
#X obj 671 29 bng 15 250 50 0 empty empty empty 17 7 0 10 -262144 -1
-1;
#X obj 671 49 openpanel;
#X obj 671 70 print;
#X msg 117 256 read_mapA miap/bloom-cubefest.json;
#X msg 507 256 read_mapB miap/bloom-cubefest.json;
#X msg 137 297 read_mapA miap/snake-cubefest.json;
#X msg 527 297 read_mapB miap/snake-cubefest.json;
#X connect 1 0 24 0;
#X connect 2 0 1 0;
#X connect 4 0 7 0;
#X connect 5 0 4 0;
#X connect 6 0 9 0;
#X connect 7 0 1 0;
#X connect 9 0 4 0;
#X connect 9 1 4 1;
#X connect 11 0 30 0;
#X connect 12 0 28 0;
#X connect 15 0 31 0;
#X connect 16 0 29 0;
#X connect 20 0 2 0;
#X connect 21 0 5 0;
#X connect 22 0 12 0;
#X connect 22 0 14 0;
#X connect 22 0 13 0;
#X connect 22 0 11 0;
#X connect 23 0 16 0;
#X connect 23 0 18 0;
#X connect 23 0 17 0;
#X connect 23 0 15 0;
#X connect 24 1 10 0;
#X connect 25 0 26 0;
#X connect 26 0 27 0;
#X connect 28 0 1 0;
#X connect 29 0 1 0;
#X connect 30 0 1 0;
#X connect 31 0 1 0;
