#N canvas 0 277 1280 468 10;
#X obj 379 26 inlet;
#X msg 35 158 \$1 333;
#X msg 85 158 \$1 333;
#X msg 135 158 \$1 333;
#X msg 185 158 \$1 333;
#X msg 235 158 \$1 333;
#X msg 285 158 \$1 333;
#X msg 335 158 \$1 333;
#X msg 385 158 \$1 333;
#X msg 435 158 \$1 333;
#X msg 485 158 \$1 333;
#X msg 535 158 \$1 333;
#X msg 585 158 \$1 333;
#X msg 635 158 \$1 333;
#X msg 685 158 \$1 333;
#X msg 735 158 \$1 333;
#X msg 785 158 \$1 333;
#X msg 436 210 \$1 333;
#X msg 486 210 \$1 333;
#X msg 536 210 \$1 333;
#X msg 586 210 \$1 333;
#X msg 636 210 \$1 333;
#X msg 686 210 \$1 333;
#X msg 736 210 \$1 333;
#X msg 786 210 \$1 333;
#X obj 35 179 line~;
#X obj 85 179 line~;
#X obj 135 179 line~;
#X obj 185 179 line~;
#X obj 235 179 line~;
#X obj 285 179 line~;
#X obj 335 179 line~;
#X obj 385 179 line~;
#X obj 435 179 line~;
#X obj 485 179 line~;
#X obj 535 179 line~;
#X obj 585 179 line~;
#X obj 635 179 line~;
#X obj 685 179 line~;
#X obj 736 179 line~;
#X obj 785 179 line~;
#X obj 436 231 line~;
#X obj 486 231 line~;
#X obj 536 231 line~;
#X obj 587 231 line~;
#X obj 636 231 line~;
#X obj 686 231 line~;
#X obj 736 231 line~;
#X obj 786 231 line~;
#X obj 87 348 s~ miap1;
#X obj 97 368 s~ miap2;
#X obj 107 388 s~ miap3;
#X obj 117 408 s~ miap4;
#X obj 227 348 s~ miap5;
#X obj 237 368 s~ miap6;
#X obj 247 388 s~ miap7;
#X obj 257 408 s~ miap8;
#X obj 387 348 s~ miap9;
#X obj 397 368 s~ miap10;
#X obj 407 388 s~ miap11;
#X obj 417 408 s~ miap12;
#X obj 527 348 s~ miap13;
#X obj 537 368 s~ miap14;
#X obj 547 389 s~ miap15;
#X obj 557 408 s~ miap16;
#X obj 657 348 s~ miap17;
#X obj 667 368 s~ miap18;
#X obj 677 388 s~ miap19;
#X obj 686 408 s~ miap20;
#X obj 777 348 s~ miap21;
#X obj 787 368 s~ miap22;
#X obj 797 388 s~ miap23;
#X obj 807 409 s~ miap24;
#X obj 379 55 unpack f f f f f f f f f f f f f f f f f f f f f f f
f;
#X connect 0 0 73 0;
#X connect 1 0 25 0;
#X connect 2 0 26 0;
#X connect 3 0 27 0;
#X connect 4 0 28 0;
#X connect 5 0 29 0;
#X connect 6 0 30 0;
#X connect 7 0 31 0;
#X connect 8 0 32 0;
#X connect 9 0 33 0;
#X connect 10 0 34 0;
#X connect 11 0 35 0;
#X connect 12 0 36 0;
#X connect 13 0 37 0;
#X connect 14 0 38 0;
#X connect 15 0 39 0;
#X connect 16 0 40 0;
#X connect 17 0 41 0;
#X connect 18 0 42 0;
#X connect 19 0 43 0;
#X connect 20 0 44 0;
#X connect 21 0 45 0;
#X connect 22 0 46 0;
#X connect 23 0 47 0;
#X connect 24 0 48 0;
#X connect 25 0 49 0;
#X connect 26 0 50 0;
#X connect 27 0 51 0;
#X connect 28 0 52 0;
#X connect 29 0 53 0;
#X connect 30 0 54 0;
#X connect 31 0 55 0;
#X connect 32 0 56 0;
#X connect 33 0 57 0;
#X connect 34 0 58 0;
#X connect 35 0 59 0;
#X connect 36 0 60 0;
#X connect 37 0 61 0;
#X connect 38 0 62 0;
#X connect 39 0 63 0;
#X connect 40 0 64 0;
#X connect 41 0 65 0;
#X connect 42 0 66 0;
#X connect 43 0 67 0;
#X connect 44 0 68 0;
#X connect 45 0 69 0;
#X connect 46 0 70 0;
#X connect 47 0 71 0;
#X connect 48 0 72 0;
#X connect 73 0 1 0;
#X connect 73 1 2 0;
#X connect 73 2 3 0;
#X connect 73 3 4 0;
#X connect 73 4 5 0;
#X connect 73 5 6 0;
#X connect 73 6 7 0;
#X connect 73 7 8 0;
#X connect 73 8 9 0;
#X connect 73 9 10 0;
#X connect 73 10 11 0;
#X connect 73 11 12 0;
#X connect 73 12 13 0;
#X connect 73 13 14 0;
#X connect 73 14 15 0;
#X connect 73 15 16 0;
#X connect 73 16 17 0;
#X connect 73 17 18 0;
#X connect 73 18 19 0;
#X connect 73 19 20 0;
#X connect 73 20 21 0;
#X connect 73 21 22 0;
#X connect 73 22 23 0;
#X connect 73 23 24 0;
#X coords 0 468 1 467 649 115 0;
