#N canvas 786 192 460 424 10;
#X obj 111 288 cos~;
#X obj 171 288 cos~;
#X obj 114 195 hsl 100 15 0 0.25 0 0 empty empty 0-0.25 -2 8 0 10 -262144
-1 -1 4950 1;
#X floatatom 147 220 5 0 0 0 - - -;
#X obj 170 257 + 0.75;
#X obj 96 338 *~;
#X obj 156 338 *~;
#X obj 111 138 loadbang;
#X msg 111 162 0.125;
#X obj 6 83 inlet~;
#X obj 96 359 outlet~;
#X obj 156 359 outlet~;
#X text 203 359 outlets: l/r audio out;
#X text 28 40 via user 'maelstrom' @ forum.pdoatchrepo.info;
#X text 69 22 EQUAL POWER PANNER;
#X obj 230 116 inlet;
#X obj 230 147 / 1;
#X obj 230 168 * 0.25;
#X obj 177 139 sel 0;
#X text 51 84 inlet 1: l audio in;
#X text 271 118 input 3: pan control;
#X obj 36 103 inlet~;
#X text 81 104 inlet 2: r audio in;
#X floatatom 238 254 5 0 0 0 - - -;
#X obj 238 274 sel 0;
#X obj 238 296 bng 15 250 50 0 empty empty empty 17 7 0 10 -262144
-1 -1;
#X msg 238 316 0;
#X obj 238 233 < 1;
#X floatatom 376 180 5 0 0 0 - - -;
#X obj 376 200 sel 0;
#X obj 376 222 bng 15 250 50 0 empty empty empty 17 7 0 10 -262144
-1 -1;
#X floatatom 376 303 5 0 0 0 - - -;
#X obj 299 230 t f f;
#X obj 376 263 line;
#X msg 376 242 0 200;
#X obj 376 159 > 0.005;
#X connect 0 0 5 1;
#X connect 1 0 6 1;
#X connect 2 0 3 0;
#X connect 2 0 0 0;
#X connect 2 0 4 0;
#X connect 3 0 27 0;
#X connect 4 0 1 0;
#X connect 5 0 10 0;
#X connect 6 0 11 0;
#X connect 7 0 8 0;
#X connect 8 0 2 0;
#X connect 9 0 5 0;
#X connect 15 0 32 0;
#X connect 16 0 17 0;
#X connect 17 0 2 0;
#X connect 18 0 8 0;
#X connect 21 0 6 0;
#X connect 23 0 24 0;
#X connect 24 0 25 0;
#X connect 25 0 26 0;
#X connect 26 0 2 0;
#X connect 27 0 23 0;
#X connect 28 0 29 0;
#X connect 29 0 30 0;
#X connect 30 0 34 0;
#X connect 31 0 18 0;
#X connect 31 0 16 0;
#X connect 32 0 35 0;
#X connect 32 1 31 0;
#X connect 33 0 31 0;
#X connect 34 0 33 0;
#X connect 35 0 28 0;
