#N canvas 433 57 312 419 10;
#X obj 17 89 vu 12 80 \$0-m empty -1 -8 2 4 -33289 -33289 0 0;
#X obj 135 71 inlet~;
#X obj 164 150 s \$0-m;
#X obj 150 127 pack;
#X obj 150 99 else/vu~ \$1 \$2;
#X text 47 282 Alexandre Torres Porres (2016);
#X text 45 301 Part of ELSE \; https://github.com/porres/pd-else;
#X text 47 262 [meter~]: Mono Vu meter;
#X obj 135 199 outlet~;
#X obj 150 174 outlet;
#X connect 1 0 4 0;
#X connect 1 0 8 0;
#X connect 3 0 2 0;
#X connect 3 0 9 0;
#X connect 4 0 3 0;
#X connect 4 1 3 1;
#X coords 0 -1 1 1 15 86 2 15 86;
